{
    "asset" : {
        "generator" : "Khronos glTF Blender I/O v1.1.46",
        "version" : "2.0"
    },
    "scene" : 0,
    "scenes" : [
        {
            "name" : "Scene",
            "nodes" : [
                0
            ]
        }
    ],
    "nodes" : [
        {
            "mesh" : 0,
            "name" : "10450_Rectangular_Grass_Patch_v1_iterations-2",
            "rotation" : [
                0.008030529133975506,
                0,
                0,
                0.9999677538871765
            ],
            "scale" : [
                0.03863632306456566,
                0.02837435156106949,
                0.055334772914648056
            ]
        }
    ],
    "materials" : [
        {
            "doubleSided" : true,
            "emissiveFactor" : [
                0,
                0,
                0
            ],
            "name" : "10450_Rectangular_Grass_Patch_v1",
            "pbrMetallicRoughness" : {
                "baseColorTexture" : {
                    "index" : 0,
                    "texCoord" : 0
                },
                "metallicFactor" : 0,
                "roughnessFactor" : 0.8945907354354858
            }
        }
    ],
    "meshes" : [
        {
            "name" : "10450_Rectangular_Grass_Patch_v1_iterations-2",
            "primitives" : [
                {
                    "attributes" : {
                        "POSITION" : 0,
                        "NORMAL" : 1,
                        "TEXCOORD_0" : 2
                    },
                    "indices" : 3,
                    "material" : 0
                }
            ]
        }
    ],
    "textures" : [
        {
            "source" : 0
        }
    ],
    "images" : [
        {
            "bufferView" : 4,
            "mimeType" : "image/jpeg",
            "name" : "10450_Rectangular_Grass_Patch_v1_Diffuse"
        }
    ],
    "accessors" : [
        {
            "bufferView" : 0,
            "componentType" : 5126,
            "count" : 17010,
            "max" : [
                150,
                11.782999992370605,
                150
            ],
            "min" : [
                -150,
                0,
                -150
            ],
            "type" : "VEC3"
        },
        {
            "bufferView" : 1,
            "componentType" : 5126,
            "count" : 17010,
            "type" : "VEC3"
        },
        {
            "bufferView" : 2,
            "componentType" : 5126,
            "count" : 17010,
            "type" : "VEC2"
        },
        {
            "bufferView" : 3,
            "componentType" : 5123,
            "count" : 99840,
            "type" : "SCALAR"
        }
    ],
    "bufferViews" : [
        {
            "buffer" : 0,
            "byteLength" : 204120,
            "byteOffset" : 0
        },
        {
            "buffer" : 0,
            "byteLength" : 204120,
            "byteOffset" : 204120
        },
        {
            "buffer" : 0,
            "byteLength" : 136080,
            "byteOffset" : 408240
        },
        {
            "buffer" : 0,
            "byteLength" : 199680,
            "byteOffset" : 544320
        },
        {
            "buffer" : 0,
            "byteLength" : 1652021,
            "byteOffset" : 744000
        }
    ],
    "buffers" : [
        {
            "byteLength" : 2396024,
            "uri" : "data:application/octet-stream;base64,"
        }
    ]
}
