{
    "asset" : {
        "generator" : "Khronos glTF Blender I/O v1.1.46",
        "version" : "2.0"
    },
    "scene" : 0,
    "scenes" : [
        {
            "name" : "Scene",
            "nodes" : [
                0
            ]
        }
    ],
    "nodes" : [
        {
            "mesh" : 0,
            "name" : "Cube",
            "scale" : [
                10,
                10,
                10
            ],
            "translation" : [
                -0.11281967163085938,
                -2.1531553268432617,
                -1.7800556421279907
            ]
        }
    ],
    "materials" : [
        {
            "doubleSided" : true,
            "emissiveFactor" : [
                0,
                0,
                0
            ],
            "name" : "Material.007",
            "pbrMetallicRoughness" : {
                "baseColorFactor" : [
                    0.06071477383375168,
                    0.0029862404335290194,
                    0.018965570256114006,
                    1
                ],
                "metallicFactor" : 0,
                "roughnessFactor" : 0.5
            }
        },
        {
            "doubleSided" : true,
            "emissiveFactor" : [
                0,
                0,
                0
            ],
            "name" : "Material.006",
            "pbrMetallicRoughness" : {
                "baseColorFactor" : [
                    0.08001182228326797,
                    0.007440368179231882,
                    0.002894821111112833,
                    1
                ],
                "metallicFactor" : 0,
                "roughnessFactor" : 0.5
            }
        },
        {
            "doubleSided" : true,
            "emissiveFactor" : [
                0,
                0,
                0
            ],
            "name" : "Material.001",
            "pbrMetallicRoughness" : {
                "baseColorFactor" : [
                    0,
                    0.0987791121006012,
                    0.8000000715255737,
                    1
                ],
                "metallicFactor" : 0,
                "roughnessFactor" : 0.5
            }
        },
        {
            "doubleSided" : true,
            "emissiveFactor" : [
                0,
                0,
                0
            ],
            "name" : "Material.002",
            "pbrMetallicRoughness" : {
                "baseColorFactor" : [
                    0.8000000715255737,
                    0.08610834181308746,
                    0.022422736510634422,
                    1
                ],
                "metallicFactor" : 0,
                "roughnessFactor" : 0.5
            }
        },
        {
            "doubleSided" : true,
            "emissiveFactor" : [
                0,
                0,
                0
            ],
            "name" : "Material.003",
            "pbrMetallicRoughness" : {
                "baseColorFactor" : [
                    0.008877530694007874,
                    0.8000000715255737,
                    0.046461861580610275,
                    1
                ],
                "metallicFactor" : 0,
                "roughnessFactor" : 0.5
            }
        },
        {
            "doubleSided" : true,
            "emissiveFactor" : [
                0,
                0,
                0
            ],
            "name" : "Material.005",
            "pbrMetallicRoughness" : {
                "baseColorFactor" : [
                    0.009039347991347313,
                    0.15742924809455872,
                    0.014074940234422684,
                    1
                ],
                "metallicFactor" : 0,
                "roughnessFactor" : 0.5
            }
        },
        {
            "doubleSided" : true,
            "emissiveFactor" : [
                0,
                0,
                0
            ],
            "name" : "Material.008",
            "pbrMetallicRoughness" : {
                "baseColorFactor" : [
                    0.26676133275032043,
                    0.26676133275032043,
                    0.26676133275032043,
                    1
                ],
                "metallicFactor" : 0,
                "roughnessFactor" : 0.5
            }
        },
        {
            "doubleSided" : true,
            "emissiveFactor" : [
                0,
                0,
                0
            ],
            "name" : "Material.009",
            "pbrMetallicRoughness" : {
                "baseColorFactor" : [
                    1,
                    1,
                    1,
                    1
                ],
                "metallicFactor" : 0,
                "roughnessFactor" : 0.5
            }
        },
        {
            "doubleSided" : true,
            "emissiveFactor" : [
                0,
                0,
                0
            ],
            "name" : "Material.010",
            "pbrMetallicRoughness" : {
                "baseColorFactor" : [
                    0.35055580735206604,
                    0.08476424217224121,
                    0.009971553459763527,
                    1
                ],
                "metallicFactor" : 0,
                "roughnessFactor" : 0.5
            }
        },
        {
            "doubleSided" : true,
            "emissiveFactor" : [
                0,
                0,
                0
            ],
            "name" : "Material.004",
            "pbrMetallicRoughness" : {
                "baseColorFactor" : [
                    0.8000000715255737,
                    0.08610834181308746,
                    0.022422736510634422,
                    1
                ],
                "metallicFactor" : 0,
                "roughnessFactor" : 0.5
            }
        }
    ],
    "meshes" : [
        {
            "name" : "Cube.001",
            "primitives" : [
                {
                    "attributes" : {
                        "POSITION" : 0,
                        "NORMAL" : 1,
                        "TEXCOORD_0" : 2
                    },
                    "indices" : 3,
                    "material" : 0
                },
                {
                    "attributes" : {
                        "POSITION" : 4,
                        "NORMAL" : 5,
                        "TEXCOORD_0" : 6
                    },
                    "indices" : 7,
                    "material" : 1
                },
                {
                    "attributes" : {
                        "POSITION" : 8,
                        "NORMAL" : 9,
                        "TEXCOORD_0" : 10
                    },
                    "indices" : 11,
                    "material" : 2
                },
                {
                    "attributes" : {
                        "POSITION" : 12,
                        "NORMAL" : 13,
                        "TEXCOORD_0" : 14
                    },
                    "indices" : 15,
                    "material" : 3
                },
                {
                    "attributes" : {
                        "POSITION" : 16,
                        "NORMAL" : 17,
                        "TEXCOORD_0" : 18
                    },
                    "indices" : 19,
                    "material" : 4
                },
                {
                    "attributes" : {
                        "POSITION" : 20,
                        "NORMAL" : 21,
                        "TEXCOORD_0" : 22
                    },
                    "indices" : 23,
                    "material" : 5
                },
                {
                    "attributes" : {
                        "POSITION" : 24,
                        "NORMAL" : 25,
                        "TEXCOORD_0" : 26
                    },
                    "indices" : 27,
                    "material" : 6
                },
                {
                    "attributes" : {
                        "POSITION" : 28,
                        "NORMAL" : 29,
                        "TEXCOORD_0" : 30
                    },
                    "indices" : 31,
                    "material" : 7
                },
                {
                    "attributes" : {
                        "POSITION" : 32,
                        "NORMAL" : 33,
                        "TEXCOORD_0" : 34
                    },
                    "indices" : 35,
                    "material" : 8
                },
                {
                    "attributes" : {
                        "POSITION" : 36,
                        "NORMAL" : 37,
                        "TEXCOORD_0" : 38
                    },
                    "indices" : 39,
                    "material" : 9
                }
            ]
        }
    ],
    "accessors" : [
        {
            "bufferView" : 0,
            "componentType" : 5126,
            "count" : 664,
            "max" : [
                11.526349067687988,
                6.571509838104248,
                11.526349067687988
            ],
            "min" : [
                -11.526349067687988,
                -0.9654561281204224,
                -11.526349067687988
            ],
            "type" : "VEC3"
        },
        {
            "bufferView" : 1,
            "componentType" : 5126,
            "count" : 664,
            "type" : "VEC3"
        },
        {
            "bufferView" : 2,
            "componentType" : 5126,
            "count" : 664,
            "type" : "VEC2"
        },
        {
            "bufferView" : 3,
            "componentType" : 5123,
            "count" : 1623,
            "type" : "SCALAR"
        },
        {
            "bufferView" : 4,
            "componentType" : 5126,
            "count" : 3565,
            "max" : [
                11.403095245361328,
                8.998347282409668,
                11.761137008666992
            ],
            "min" : [
                -9.764222145080566,
                3.5882389545440674,
                -6.604377746582031
            ],
            "type" : "VEC3"
        },
        {
            "bufferView" : 5,
            "componentType" : 5126,
            "count" : 3565,
            "type" : "VEC3"
        },
        {
            "bufferView" : 6,
            "componentType" : 5126,
            "count" : 3565,
            "type" : "VEC2"
        },
        {
            "bufferView" : 7,
            "componentType" : 5123,
            "count" : 5532,
            "type" : "SCALAR"
        },
        {
            "bufferView" : 8,
            "componentType" : 5126,
            "count" : 150,
            "max" : [
                8.612322807312012,
                3.727735757827759,
                -0.004868938587605953
            ],
            "min" : [
                -11.497149467468262,
                0.9492430090904236,
                -11.513463020324707
            ],
            "type" : "VEC3"
        },
        {
            "bufferView" : 9,
            "componentType" : 5126,
            "count" : 150,
            "type" : "VEC3"
        },
        {
            "bufferView" : 10,
            "componentType" : 5126,
            "count" : 150,
            "type" : "VEC2"
        },
        {
            "bufferView" : 11,
            "componentType" : 5123,
            "count" : 336,
            "type" : "SCALAR"
        },
        {
            "bufferView" : 12,
            "componentType" : 5126,
            "count" : 480,
            "max" : [
                8.128676414489746,
                4.071176528930664,
                8.231277465820312
            ],
            "min" : [
                -5.3140459060668945,
                3.763021230697632,
                -2.3573925495147705
            ],
            "type" : "VEC3"
        },
        {
            "bufferView" : 13,
            "componentType" : 5126,
            "count" : 480,
            "type" : "VEC3"
        },
        {
            "bufferView" : 14,
            "componentType" : 5126,
            "count" : 480,
            "type" : "VEC2"
        },
        {
            "bufferView" : 15,
            "componentType" : 5123,
            "count" : 720,
            "type" : "SCALAR"
        },
        {
            "bufferView" : 16,
            "componentType" : 5126,
            "count" : 73,
            "max" : [
                11.518701553344727,
                6.581658840179443,
                11.522897720336914
            ],
            "min" : [
                -11.533995628356934,
                4.046199798583984,
                -11.529800415039062
            ],
            "type" : "VEC3"
        },
        {
            "bufferView" : 17,
            "componentType" : 5126,
            "count" : 73,
            "type" : "VEC3"
        },
        {
            "bufferView" : 18,
            "componentType" : 5126,
            "count" : 73,
            "type" : "VEC2"
        },
        {
            "bufferView" : 19,
            "componentType" : 5123,
            "count" : 162,
            "type" : "SCALAR"
        },
        {
            "bufferView" : 20,
            "componentType" : 5126,
            "count" : 928,
            "max" : [
                11.403095245361328,
                8.998347282409668,
                11.761137008666992
            ],
            "min" : [
                -9.71548080444336,
                5.923785209655762,
                -6.604377746582031
            ],
            "type" : "VEC3"
        },
        {
            "bufferView" : 21,
            "componentType" : 5126,
            "count" : 928,
            "type" : "VEC3"
        },
        {
            "bufferView" : 22,
            "componentType" : 5126,
            "count" : 928,
            "type" : "VEC2"
        },
        {
            "bufferView" : 23,
            "componentType" : 5123,
            "count" : 1392,
            "type" : "SCALAR"
        },
        {
            "bufferView" : 24,
            "componentType" : 5126,
            "count" : 34,
            "max" : [
                5.763174533843994,
                4.036050796508789,
                8.64476203918457
            ],
            "min" : [
                -2.881587266921997,
                3.6944944858551025,
                -2.881587266921997
            ],
            "type" : "VEC3"
        },
        {
            "bufferView" : 25,
            "componentType" : 5126,
            "count" : 34,
            "type" : "VEC3"
        },
        {
            "bufferView" : 26,
            "componentType" : 5126,
            "count" : 34,
            "type" : "VEC2"
        },
        {
            "bufferView" : 27,
            "componentType" : 5123,
            "count" : 87,
            "type" : "SCALAR"
        },
        {
            "bufferView" : 28,
            "componentType" : 5126,
            "count" : 20,
            "max" : [
                4.630069732666016,
                3.7679054737091064,
                7.834871768951416
            ],
            "min" : [
                -2.5051612854003906,
                3.701951503753662,
                -1.4246917963027954
            ],
            "type" : "VEC3"
        },
        {
            "bufferView" : 29,
            "componentType" : 5126,
            "count" : 20,
            "type" : "VEC3"
        },
        {
            "bufferView" : 30,
            "componentType" : 5126,
            "count" : 20,
            "type" : "VEC2"
        },
        {
            "bufferView" : 31,
            "componentType" : 5123,
            "count" : 48,
            "type" : "SCALAR"
        },
        {
            "bufferView" : 32,
            "componentType" : 5126,
            "count" : 28,
            "max" : [
                3.776320457458496,
                3.853381395339966,
                7.009291172027588
            ],
            "min" : [
                -1.9468435049057007,
                3.736333131790161,
                -0.6747876405715942
            ],
            "type" : "VEC3"
        },
        {
            "bufferView" : 33,
            "componentType" : 5126,
            "count" : 28,
            "type" : "VEC3"
        },
        {
            "bufferView" : 34,
            "componentType" : 5126,
            "count" : 28,
            "type" : "VEC2"
        },
        {
            "bufferView" : 35,
            "componentType" : 5123,
            "count" : 42,
            "type" : "SCALAR"
        },
        {
            "bufferView" : 36,
            "componentType" : 5126,
            "count" : 120,
            "max" : [
                8.128676414489746,
                4.07111120223999,
                2.085146188735962
            ],
            "min" : [
                7.755008220672607,
                3.7970097064971924,
                0.6454861760139465
            ],
            "type" : "VEC3"
        },
        {
            "bufferView" : 37,
            "componentType" : 5126,
            "count" : 120,
            "type" : "VEC3"
        },
        {
            "bufferView" : 38,
            "componentType" : 5126,
            "count" : 120,
            "type" : "VEC2"
        },
        {
            "bufferView" : 39,
            "componentType" : 5123,
            "count" : 180,
            "type" : "SCALAR"
        }
    ],
    "bufferViews" : [
        {
            "buffer" : 0,
            "byteLength" : 7968,
            "byteOffset" : 0
        },
        {
            "buffer" : 0,
            "byteLength" : 7968,
            "byteOffset" : 7968
        },
        {
            "buffer" : 0,
            "byteLength" : 5312,
            "byteOffset" : 15936
        },
        {
            "buffer" : 0,
            "byteLength" : 3246,
            "byteOffset" : 21248
        },
        {
            "buffer" : 0,
            "byteLength" : 42780,
            "byteOffset" : 24496
        },
        {
            "buffer" : 0,
            "byteLength" : 42780,
            "byteOffset" : 67276
        },
        {
            "buffer" : 0,
            "byteLength" : 28520,
            "byteOffset" : 110056
        },
        {
            "buffer" : 0,
            "byteLength" : 11064,
            "byteOffset" : 138576
        },
        {
            "buffer" : 0,
            "byteLength" : 1800,
            "byteOffset" : 149640
        },
        {
            "buffer" : 0,
            "byteLength" : 1800,
            "byteOffset" : 151440
        },
        {
            "buffer" : 0,
            "byteLength" : 1200,
            "byteOffset" : 153240
        },
        {
            "buffer" : 0,
            "byteLength" : 672,
            "byteOffset" : 154440
        },
        {
            "buffer" : 0,
            "byteLength" : 5760,
            "byteOffset" : 155112
        },
        {
            "buffer" : 0,
            "byteLength" : 5760,
            "byteOffset" : 160872
        },
        {
            "buffer" : 0,
            "byteLength" : 3840,
            "byteOffset" : 166632
        },
        {
            "buffer" : 0,
            "byteLength" : 1440,
            "byteOffset" : 170472
        },
        {
            "buffer" : 0,
            "byteLength" : 876,
            "byteOffset" : 171912
        },
        {
            "buffer" : 0,
            "byteLength" : 876,
            "byteOffset" : 172788
        },
        {
            "buffer" : 0,
            "byteLength" : 584,
            "byteOffset" : 173664
        },
        {
            "buffer" : 0,
            "byteLength" : 324,
            "byteOffset" : 174248
        },
        {
            "buffer" : 0,
            "byteLength" : 11136,
            "byteOffset" : 174572
        },
        {
            "buffer" : 0,
            "byteLength" : 11136,
            "byteOffset" : 185708
        },
        {
            "buffer" : 0,
            "byteLength" : 7424,
            "byteOffset" : 196844
        },
        {
            "buffer" : 0,
            "byteLength" : 2784,
            "byteOffset" : 204268
        },
        {
            "buffer" : 0,
            "byteLength" : 408,
            "byteOffset" : 207052
        },
        {
            "buffer" : 0,
            "byteLength" : 408,
            "byteOffset" : 207460
        },
        {
            "buffer" : 0,
            "byteLength" : 272,
            "byteOffset" : 207868
        },
        {
            "buffer" : 0,
            "byteLength" : 174,
            "byteOffset" : 208140
        },
        {
            "buffer" : 0,
            "byteLength" : 240,
            "byteOffset" : 208316
        },
        {
            "buffer" : 0,
            "byteLength" : 240,
            "byteOffset" : 208556
        },
        {
            "buffer" : 0,
            "byteLength" : 160,
            "byteOffset" : 208796
        },
        {
            "buffer" : 0,
            "byteLength" : 96,
            "byteOffset" : 208956
        },
        {
            "buffer" : 0,
            "byteLength" : 336,
            "byteOffset" : 209052
        },
        {
            "buffer" : 0,
            "byteLength" : 336,
            "byteOffset" : 209388
        },
        {
            "buffer" : 0,
            "byteLength" : 224,
            "byteOffset" : 209724
        },
        {
            "buffer" : 0,
            "byteLength" : 84,
            "byteOffset" : 209948
        },
        {
            "buffer" : 0,
            "byteLength" : 1440,
            "byteOffset" : 210032
        },
        {
            "buffer" : 0,
            "byteLength" : 1440,
            "byteOffset" : 211472
        },
        {
            "buffer" : 0,
            "byteLength" : 960,
            "byteOffset" : 212912
        },
        {
            "buffer" : 0,
            "byteLength" : 360,
            "byteOffset" : 213872
        }
    ],
    "buffers" : [
        {
            "byteLength" : 214232,
            "uri" : "data:application/octet-stream;base64,"
        }
    ]
}
