{
    "asset" : {
        "generator" : "Khronos glTF Blender I/O v1.1.46",
        "version" : "2.0"
    },
    "scene" : 0,
    "scenes" : [
        {
            "name" : "Scene",
            "nodes" : [
                0
            ]
        }
    ],
    "nodes" : [
        {
            "mesh" : 0,
            "name" : "_6_tree",
            "scale" : [
                0.13485707342624664,
                0.13485707342624664,
                0.13485707342624664
            ],
            "translation" : [
                2.5666120052337646,
                -0.02325832098722458,
                0.033748626708984375
            ]
        }
    ],
    "materials" : [
        {
            "doubleSided" : true,
            "name" : "_6_tree",
            "pbrMetallicRoughness" : {}
        }
    ],
    "meshes" : [
        {
            "name" : "Cube.003",
            "primitives" : [
                {
                    "attributes" : {
                        "POSITION" : 0,
                        "NORMAL" : 1,
                        "TEXCOORD_0" : 2,
                        "TEXCOORD_1" : 3
                    },
                    "indices" : 4,
                    "material" : 0
                }
            ]
        }
    ],
    "accessors" : [
        {
            "bufferView" : 0,
            "componentType" : 5126,
            "count" : 3757,
            "max" : [
                5.801621437072754,
                19.409507751464844,
                8.59073257446289
            ],
            "min" : [
                -7.120365619659424,
                0.12545964121818542,
                -3.3075451850891113
            ],
            "type" : "VEC3"
        },
        {
            "bufferView" : 1,
            "componentType" : 5126,
            "count" : 3757,
            "type" : "VEC3"
        },
        {
            "bufferView" : 2,
            "componentType" : 5126,
            "count" : 3757,
            "type" : "VEC2"
        },
        {
            "bufferView" : 3,
            "componentType" : 5126,
            "count" : 3757,
            "type" : "VEC2"
        },
        {
            "bufferView" : 4,
            "componentType" : 5123,
            "count" : 4485,
            "type" : "SCALAR"
        }
    ],
    "bufferViews" : [
        {
            "buffer" : 0,
            "byteLength" : 45084,
            "byteOffset" : 0
        },
        {
            "buffer" : 0,
            "byteLength" : 45084,
            "byteOffset" : 45084
        },
        {
            "buffer" : 0,
            "byteLength" : 30056,
            "byteOffset" : 90168
        },
        {
            "buffer" : 0,
            "byteLength" : 30056,
            "byteOffset" : 120224
        },
        {
            "buffer" : 0,
            "byteLength" : 8970,
            "byteOffset" : 150280
        }
    ],
    "buffers" : [
        {
            "byteLength" : 159252,
            "uri" : "data:application/octet-stream;base64,"
        }
    ]
}
